<?xml version="1.0" encoding="utf-8"?>
<!-- Generator: Adobe Illustrator 21.0.2, SVG Export Plug-In . SVG Version: 6.00 Build 0)  -->
<svg version="1.1" id="Layer_1" xmlns="http://www.w3.org/2000/svg" xmlns:xlink="http://www.w3.org/1999/xlink" x="0px" y="0px"
	 width="52.2px" height="52.2px" viewBox="0 0 52.2 52.2" style="enable-background:new 0 0 52.2 52.2;" xml:space="preserve">
<g>
	<path d="M18.4,36.6l4.3-4.4c1.9-1.9,5-1.9,6.9,0l12.3,12.1l-4.3,4.4c-1.9,1.9-5,1.9-6.9,0L18.4,36.6z"/>
	<path d="M15.7,18.3l4.4,4.3c1.9,1.9,1.9,5,0,6.9L8,41.8l-4.4-4.3c-1.9-1.9-1.9-5,0-6.9L15.7,18.3z"/>
	<path d="M33.9,15.6L29.5,20c-1.9,1.9-5,1.9-6.9,0L10.4,8l4.3-4.4c1.9-1.9,5-1.9,6.9,0L33.9,15.6z"/>
	<path d="M36.6,33.8l-4.4-4.3c-1.9-1.9-1.9-5,0-6.9l12.1-12.3l4.4,4.3c1.9,1.9,1.9,5,0,6.9L36.6,33.8z"/>
</g>
</svg>
