<svg 
 xmlns="http://www.w3.org/2000/svg"
 xmlns:xlink="http://www.w3.org/1999/xlink"
 width="25px" height="22px">
<path fill-rule="evenodd"  fill="rgb(43, 61, 81)"
 d="M24.405,22.000 L0.595,22.000 C0.266,22.000 -0.000,21.727 -0.000,21.390 C-0.000,21.053 0.266,20.780 0.595,20.780 L24.405,20.780 C24.734,20.780 25.000,21.053 25.000,21.390 C25.000,21.727 24.734,22.000 24.405,22.000 ZM23.515,19.262 L17.952,19.262 C17.623,19.262 17.357,18.989 17.357,18.652 L17.357,0.625 C17.357,0.288 17.623,0.015 17.952,0.015 L23.515,0.015 C23.844,0.015 24.110,0.288 24.110,0.625 L24.110,18.652 C24.110,18.989 23.844,19.262 23.515,19.262 ZM22.920,1.235 L18.547,1.235 L18.547,18.042 L22.920,18.042 L22.920,1.235 ZM15.282,19.262 L9.718,19.262 C9.390,19.262 9.124,18.989 9.124,18.652 L9.124,11.122 C9.124,10.785 9.390,10.512 9.718,10.512 L15.282,10.512 C15.610,10.512 15.876,10.785 15.876,11.122 L15.876,18.652 C15.876,18.989 15.610,19.262 15.282,19.262 ZM14.687,11.732 L10.313,11.732 L10.313,18.042 L14.687,18.042 L14.687,11.732 ZM7.048,19.262 L1.040,19.262 C0.711,19.262 0.445,18.989 0.445,18.652 L0.445,5.417 C0.445,5.080 0.711,4.807 1.040,4.807 L7.048,4.807 C7.377,4.807 7.643,5.080 7.643,5.417 L7.643,18.652 C7.643,18.989 7.377,19.262 7.048,19.262 ZM6.453,6.027 L1.635,6.027 L1.635,18.042 L6.453,18.042 L6.453,6.027 Z"/>
</svg>