<svg xmlns="http://www.w3.org/2000/svg" width="17" height="20" viewBox="0 0 17 20">
  <defs>
    <style>
      .cls-1 {
        fill: #2b3d51;
        fill-rule: evenodd;
      }
    </style>
  </defs>
  <path id="trash_icon" class="cls-1" d="M1035.47,564.878h-3.98V564.2a2.153,2.153,0,0,0-2.1-2.2h-3.78a2.153,2.153,0,0,0-2.1,2.2v0.678h-3.98a0.556,0.556,0,0,0,0,1.11h0.96v13.043a2.907,2.907,0,0,0,2.84,2.969h8.34a2.907,2.907,0,0,0,2.84-2.969V565.988h0.96A0.556,0.556,0,0,0,1035.47,564.878Zm-10.9-.678a1.07,1.07,0,0,1,1.04-1.09h3.78a1.07,1.07,0,0,1,1.04,1.09v0.678h-5.86V564.2Zm8.88,14.831a1.824,1.824,0,0,1-1.78,1.859h-8.34a1.824,1.824,0,0,1-1.78-1.859V565.988h11.9v13.043h0Zm-5.95-.131a0.544,0.544,0,0,0,.53-0.555v-9.811a0.531,0.531,0,1,0-1.06,0v9.806A0.548,0.548,0,0,0,1027.5,578.9Zm-3.46-.613a0.544,0.544,0,0,0,.53-0.555v-8.59a0.544,0.544,0,0,0-.53-0.555,0.537,0.537,0,0,0-.53.555v8.59A0.544,0.544,0,0,0,1024.04,578.287Zm6.92,0a0.537,0.537,0,0,0,.53-0.555v-8.59a0.537,0.537,0,0,0-.53-0.555,0.544,0.544,0,0,0-.53.555v8.59A0.544,0.544,0,0,0,1030.96,578.287Z" transform="translate(-1019 -562)"/>
</svg>
