<svg xmlns="http://www.w3.org/2000/svg" width="13.97" height="14.969" viewBox="0 0 13.97 14.969">
  <defs>
    <style>
      .cls-1 {
        fill: #f5f5f5;
        fill-rule: evenodd;
      }
    </style>
  </defs>
  <path id="close_login_icon" class="cls-1" d="M1531.12,33.166a7.053,7.053,0,0,0,2.9,4.573,6.823,6.823,0,0,0,5.26,1.133,7.059,7.059,0,0,0,5.72-7c0-.062-0.01-0.123-0.01-0.185-0.01-.135-0.02-0.274-0.03-0.409a7.07,7.07,0,0,0-2.02-4.46,0.969,0.969,0,0,0-.94-0.263,0.984,0.984,0,0,0-.7.689,1.025,1.025,0,0,0,.29,1.054,5.01,5.01,0,0,1,1.38,4.2,5.067,5.067,0,0,1-2.04,3.521,4.983,4.983,0,0,1-3.99.847,5.092,5.092,0,0,1-3.9-5.781,5.21,5.21,0,0,1,1.41-2.843,1.065,1.065,0,0,0,.29-0.731,1.023,1.023,0,0,0-.32-0.709,0.957,0.957,0,0,0-.67-0.277,0.99,0.99,0,0,0-.73.334A7.059,7.059,0,0,0,1531.12,33.166Zm5.89-3.519v2.547a1,1,0,0,0,.98.966h0a0.989,0.989,0,0,0,.99-0.963c0.01-2.266,0-4.57,0-6.8V24.963a0.924,0.924,0,0,0-.27-0.648,0.966,0.966,0,0,0-1.07-.246,1,1,0,0,0-.63.931v3.283h0v1.365Z" transform="translate(-1531.03 -24)"/>
</svg>
