<svg xmlns="http://www.w3.org/2000/svg" width="24" height="24" viewBox="0 0 24 24">
  <defs>
    <style>
      .cls-1 {
        fill: #74cc94;
        fill-rule: evenodd;
      }
    </style>
  </defs>
  <path id="CP_icon" class="cls-1" d="M1025,845a12,12,0,1,1-12,12A12,12,0,0,1,1025,845Zm-12,23,1.87-6.984,5.11,5.113Zm5.07-10.829a4.023,4.023,0,0,0,1.1,2.74,3.656,3.656,0,0,0,2.66,1.144,3.715,3.715,0,0,0,3.64-2.937h-1.09a2.647,2.647,0,0,1-4.44,1.012,2.824,2.824,0,0,1,0-3.939,2.6,2.6,0,0,1,1.89-.825,2.516,2.516,0,0,1,2.49,1.738h1.1a3.608,3.608,0,0,0-3.59-2.838,3.7,3.7,0,0,0-2.66,1.144A4.035,4.035,0,0,0,1018.07,857.171Zm8.04-3.872V861h1.12v-2.563h1.69a2.57,2.57,0,0,0,0-5.138h-2.81Zm1.12,4.037v-2.915h1.69a1.459,1.459,0,0,1,0,2.915h-1.69Z" transform="translate(-1013 -845)"/>
</svg>
