<svg xmlns="http://www.w3.org/2000/svg" width="29.125" height="19" viewBox="0 0 29.125 19">
  <defs>
    <style>
      .cls-1 {
        fill: #2b3d51;
        fill-rule: evenodd;
      }
    </style>
  </defs>
  <path id="teamexpenses_icon" class="cls-1" d="M608.579,103.559a9.238,9.238,0,0,0-5.971-6A5.232,5.232,0,0,0,604.8,92.21a5.41,5.41,0,0,0-4.266-4.086c-0.185-.032-0.372-0.058-0.558-0.085L599.732,88,599.3,88l-0.1.012a1.017,1.017,0,0,0-.1.03,5.3,5.3,0,0,0-1.911.472,5.162,5.162,0,0,0-.821,9.044,9.344,9.344,0,0,0-5.106,4.084A8.772,8.772,0,0,0,590,106.019a0.892,0.892,0,0,0,.554.951l0.075,0.03h0.283l0.083-.038a0.868,0.868,0,0,0,.522-0.927,0.79,0.79,0,0,1,.011-0.139c0.006-.053.013-0.107,0.016-0.16a7.079,7.079,0,0,1,.708-2.722,8.022,8.022,0,0,1,8.4-4.414,7.9,7.9,0,0,1,6.814,7.485,0.929,0.929,0,0,0,.511.872L608.057,107h0.288l0.072-.028a0.873,0.873,0,0,0,.579-0.933A8.632,8.632,0,0,0,608.579,103.559Zm-9.1-6.517a3.932,3.932,0,0,1-2.751-1.109,3.672,3.672,0,0,1,0-5.332,3.939,3.939,0,0,1,2.753-1.11h0A3.934,3.934,0,0,1,602.24,90.6a3.691,3.691,0,0,1,1.148,2.666,3.846,3.846,0,0,1-3.9,3.772h0Zm-5.708,1.781a4.82,4.82,0,0,0-2.54-2.912,2.892,2.892,0,0,0,.722-2.556,3.027,3.027,0,0,0-2.386-2.288c-0.093-.016-0.187-0.029-0.281-0.043l-0.117-.017L588.89,91l-0.126.017-0.027.007a2.971,2.971,0,0,0-1.016.26,2.891,2.891,0,0,0-.968,4.627,4.9,4.9,0,0,0-2.079,1.9,4.645,4.645,0,0,0-.672,2.311,0.807,0.807,0,0,0,.512.828l0.11,0.044h0.3l0.121-.055a0.8,0.8,0,0,0,.479-0.817v0.022l-0.294-.034h0l0.3,0.01c0-.035.008-0.071,0.01-0.106a3.074,3.074,0,0,1,.307-1.179,3.492,3.492,0,0,1,3.652-1.927,3.257,3.257,0,0,1,1.235.423,3.3,3.3,0,0,1,1.727,2.851,0.823,0.823,0,0,0,.461.748L593.051,101h0.311l0.105-.041a0.81,0.81,0,0,0,.53-0.826A4.568,4.568,0,0,0,593.775,98.823Zm-3.286-4.879a1.475,1.475,0,0,1-1.5,1.449,1.5,1.5,0,0,1-1.053-.426,1.412,1.412,0,0,1,0-2.047,1.513,1.513,0,0,1,2.108,0A1.421,1.421,0,0,1,590.489,93.945Zm20.73,4.607V97.3a2.086,2.086,0,0,0,1.895-2.039c0-1.067-.624-1.691-1.859-2.195-1.044-.432-1.487-0.743-1.487-1.367a1.092,1.092,0,0,1,1.271-1.031,2.9,2.9,0,0,1,1.511.408l0.3-.792a3.2,3.2,0,0,0-1.559-.42V88.7h-0.744v1.211a1.967,1.967,0,0,0-1.811,1.931c0,1.043.756,1.6,1.979,2.075,0.888,0.36,1.355.768,1.355,1.427a1.26,1.26,0,0,1-1.427,1.175,3.2,3.2,0,0,1-1.727-.516l-0.288.8a3.5,3.5,0,0,0,1.835.528v1.211h0.756Z" transform="translate(-584 -88)"/>
</svg>
