<svg xmlns="http://www.w3.org/2000/svg" width="86" height="79" viewBox="0 0 86 79">
  <defs>
    <style>
      .cls-1 {
        fill: #74cc94;
        fill-rule: evenodd;
      }
    </style>
  </defs>
  <path id="icon_store" class="cls-1" d="M1459,296V217h86v79h-86Zm53-47c-1.61,0-5,0-5,0s0.01-.335,0-1a19.061,19.061,0,0,0,0-2,4.659,4.659,0,0,0-4-4c0.22,0.029-1.38,0-2,0a4.884,4.884,0,0,0-4,5c-0.01.71,0,1.258,0,2h-5a0.848,0.848,0,0,0-1,.725q0,9.095,0,18.188a1.024,1.024,0,0,0,.66,1.087h20.67a1.032,1.032,0,0,0,.67-1.087c-0.01-6.071,0-11.842,0-17.913A0.919,0.919,0,0,0,1512,249Zm-19,2h4v2a0.964,0.964,0,1,0,1.92-.074c0-.817.08-1.09,0.08-1.926h6v2a1,1,0,0,0,2,0v-2h4v16h-18V251Zm6-2c0.05-.952,0-1.933,0-3a3.25,3.25,0,0,1,6,0c-0.03,1.754,0,2.279,0,3h-6Z" transform="translate(-1459 -217)"/>
</svg>
