<svg xmlns="http://www.w3.org/2000/svg" width="23.125" height="19" viewBox="0 0 23.125 19">
  <defs>
    <style>
      .cls-1 {
        fill: #2b3d51;
        fill-rule: evenodd;
      }
    </style>
  </defs>
  <path id="Shape_6_copy" data-name="Shape 6 copy" class="cls-1" d="M401.219,98.551V97.3a2.086,2.086,0,0,0,1.895-2.039c0-1.067-.624-1.691-1.859-2.195-1.044-.432-1.487-0.743-1.487-1.367a1.092,1.092,0,0,1,1.271-1.031,2.9,2.9,0,0,1,1.511.408l0.3-.792a3.2,3.2,0,0,0-1.559-.42V88.7h-0.744v1.211a1.967,1.967,0,0,0-1.811,1.931c0,1.043.756,1.6,1.979,2.075,0.888,0.36,1.355.768,1.355,1.427a1.26,1.26,0,0,1-1.427,1.175,3.2,3.2,0,0,1-1.727-.516l-0.288.8a3.5,3.5,0,0,0,1.835.528v1.211h0.756Zm-2.64,5.008a9.238,9.238,0,0,0-5.971-6A5.232,5.232,0,0,0,394.8,92.21a5.41,5.41,0,0,0-4.266-4.086c-0.185-.032-0.372-0.058-0.558-0.085L389.732,88,389.3,88l-0.1.012a1.017,1.017,0,0,0-.1.03,5.3,5.3,0,0,0-1.911.472,5.162,5.162,0,0,0-.821,9.044,9.344,9.344,0,0,0-5.106,4.084A8.772,8.772,0,0,0,380,106.019a0.892,0.892,0,0,0,.554.951l0.075,0.03h0.283l0.083-.038a0.868,0.868,0,0,0,.522-0.927,0.79,0.79,0,0,1,.011-0.139c0.006-.053.013-0.107,0.016-0.16a7.079,7.079,0,0,1,.708-2.722,8.022,8.022,0,0,1,8.4-4.414,7.9,7.9,0,0,1,6.814,7.485,0.929,0.929,0,0,0,.511.872L398.057,107h0.288l0.072-.028a0.873,0.873,0,0,0,.579-0.933A8.632,8.632,0,0,0,398.579,103.559Zm-9.1-6.517a3.932,3.932,0,0,1-2.751-1.109,3.672,3.672,0,0,1,0-5.332,3.939,3.939,0,0,1,2.753-1.11h0A3.934,3.934,0,0,1,392.24,90.6a3.691,3.691,0,0,1,1.148,2.666,3.846,3.846,0,0,1-3.9,3.772h0Z" transform="translate(-380 -88)"/>
</svg>
