<svg xmlns="http://www.w3.org/2000/svg" width="19.03" height="19" viewBox="0 0 19.03 19">
  <defs>
    <style>
      .cls-1 {
        fill: #2b3d51;
        fill-rule: evenodd;
      }
    </style>
  </defs>
  <path id="search_icon" class="cls-1" d="M1298.5,266.822a7.739,7.739,0,1,1,1.28-1.275,1.078,1.078,0,0,1,.21.121q2.34,2.337,4.68,4.678a0.961,0.961,0,0,1,.3.954,0.929,0.929,0,0,1-1.56.427c-0.49-.471-0.96-0.96-1.44-1.441l-3.36-3.356C1298.58,266.9,1298.54,266.865,1298.5,266.822Zm-4.8-.233a5.86,5.86,0,1,0-5.83-5.869A5.872,5.872,0,0,0,1293.7,266.589Z" transform="translate(-1285.97 -253)"/>
</svg>
