<svg 
 xmlns="http://www.w3.org/2000/svg"
 xmlns:xlink="http://www.w3.org/1999/xlink"
 width="25px" height="21px">
<path fill-rule="evenodd"  fill="rgb(242, 94, 70)"
 d="M23.468,19.239 C22.902,20.323 21.769,21.000 20.353,21.000 L3.645,21.000 C2.371,21.000 1.097,20.323 0.530,19.239 C-0.178,18.155 -0.178,16.800 0.530,15.716 L8.884,1.761 C9.592,0.677 10.725,0.000 11.999,0.000 C13.274,0.000 14.548,0.677 15.114,1.761 L23.468,15.716 C24.176,16.800 24.176,18.155 23.468,19.239 ZM22.336,16.529 L13.982,2.574 C13.557,1.897 12.849,1.490 11.999,1.490 C11.150,1.490 10.442,1.897 10.159,2.574 L1.805,16.529 C1.380,17.207 1.380,18.019 1.805,18.697 C2.229,19.374 2.937,19.781 3.645,19.781 L20.495,19.781 C21.345,19.781 22.053,19.374 22.336,18.697 C22.761,18.019 22.761,17.206 22.336,16.529 ZM11.999,13.277 C11.575,13.277 11.291,13.006 11.291,12.600 L11.291,7.723 C11.291,7.316 11.575,7.045 11.999,7.045 C12.424,7.045 12.707,7.316 12.707,7.723 L12.707,12.600 C12.707,13.006 12.424,13.277 11.999,13.277 ZM12.424,15.581 C12.566,15.716 12.566,15.852 12.566,16.123 C12.566,16.258 12.424,16.529 12.282,16.664 C12.424,16.800 12.141,16.800 11.999,16.800 C11.858,16.800 11.575,16.800 11.433,16.664 C11.291,16.529 11.291,16.394 11.291,16.123 C11.291,15.987 11.291,15.716 11.433,15.581 C11.716,15.310 12.141,15.310 12.424,15.581 Z"/>
</svg>