<?xml version="1.0" encoding="iso-8859-1"?>
<!-- Generator: Adobe Illustrator 21.0.2, SVG Export Plug-In . SVG Version: 6.00 Build 0)  -->
<svg version="1.1" id="Layer_1" xmlns="http://www.w3.org/2000/svg" xmlns:xlink="http://www.w3.org/1999/xlink" x="0px" y="0px"
	 viewBox="0 0 609.075 119.104" style="enable-background:new 0 0 609.075 119.104;" xml:space="preserve">
<g>
	<g>
		<path style="fill:#292F36;" d="M183.285,48.008h-26.679c-8.662,0-10.543,3.96-10.543,11.632c0,7.672,1.93,11.583,10.543,11.583
			h26.679v5.346h-26.679c-11.731,0-16.136-5.643-16.136-16.928c0-11.236,4.356-16.928,16.136-16.928h26.679V48.008z"/>
		<path style="fill:#292F36;" d="M234.813,59.64c0,13.513-8.019,17.423-23.511,17.423s-23.511-3.91-23.511-17.423
			c0-13.463,8.019-17.374,23.511-17.374S234.813,46.177,234.813,59.64z M229.22,59.64c0-10.543-6.187-12.226-17.918-12.226
			c-11.731,0-17.918,1.683-17.918,12.226c0,10.593,6.187,12.226,17.918,12.226C223.033,71.866,229.22,70.233,229.22,59.64z"/>
		<path style="fill:#292F36;" d="M247.685,76.568h-5.494V42.712h4.158c8.613,0,10.988,2.92,20.096,15.295
			c8.613,11.731,9.602,13.067,14.057,13.067h0.247V42.712h5.494v33.856h-4.158c-8.068,0-10.493-2.722-19.997-15.245
			c-9.157-11.978-9.85-13.067-14.156-13.067h-0.247V76.568z"/>
		<path style="fill:#292F36;" d="M309.162,76.568V47.662h-17.473v-4.95h40.39v4.95h-17.473v28.907H309.162z"/>
		<path style="fill:#292F36;" d="M381.776,59.64c0,13.513-8.019,17.423-23.511,17.423c-15.493,0-23.511-3.91-23.511-17.423
			c0-13.463,8.019-17.374,23.511-17.374C373.757,42.267,381.776,46.177,381.776,59.64z M376.182,59.64
			c0-10.543-6.187-12.226-17.918-12.226c-11.731,0-17.918,1.683-17.918,12.226c0,10.593,6.187,12.226,17.918,12.226
			C369.995,71.866,376.182,70.233,376.182,59.64z"/>
		<path style="fill:#292F36;" d="M417.218,71.668c4.851,0,6.831-1.634,6.831-4.356c0-2.871-2.326-4.405-7.92-4.851l-16.582-1.336
			c-7.573-0.594-11.83-3.316-11.83-9.256c0-6.633,5.395-9.157,12.176-9.157h27.471v4.9h-27.966c-3.91,0-6.138,1.237-6.138,4.108
			c0,2.623,1.782,4.009,7.672,4.455l15.988,1.287c7.969,0.644,12.77,3.168,12.77,9.652c0,5.643-3.762,9.454-12.82,9.454h-29.55v-4.9
			H417.218z"/>
		<path style="fill:#292F36;" d="M481.714,59.64c0,13.513-8.019,17.423-23.511,17.423c-15.493,0-23.511-3.91-23.511-17.423
			c0-13.463,8.019-17.374,23.511-17.374C473.696,42.267,481.714,46.177,481.714,59.64z M476.121,59.64
			c0-10.543-6.187-12.226-17.918-12.226c-11.731,0-17.918,1.683-17.918,12.226c0,10.593,6.187,12.226,17.918,12.226
			C469.934,71.866,476.121,70.233,476.121,59.64z"/>
		<path style="fill:#292F36;" d="M546.657,76.568h-5.841l-4.603-9.206h-26.481l-4.603,9.206h-5.841L512.9,49.345
			c2.178-4.405,4.801-7.078,10.048-7.078c5.296,0,7.87,2.673,10.097,7.078L546.657,76.568z M527.7,50.483
			c-1.039-2.079-2.326-3.366-4.752-3.366c-2.376,0-3.663,1.287-4.703,3.366l-6.038,12.028h21.482L527.7,50.483z"/>
		<path style="fill:#292F36;" d="M557.944,42.712v33.856h-5.445V42.712H557.944z"/>
		<path style="fill:#292F36;" d="M567.051,42.712h29.203c8.266,0,12.82,4.059,12.82,10.345c0,4.851-2.722,7.92-7.276,9.108
			c4.405,1.287,6.435,4.207,6.435,7.92v6.484h-5.643v-6.583c0-2.722-1.732-5.346-6.534-5.346h-23.561v11.929h-5.445V42.712z
			 M596.651,59.789c5.148,0,6.831-3.366,6.831-6.138c0-2.772-1.634-6.088-6.831-6.088h-24.155v12.226H596.651z"/>
	</g>
	<g>
		<path style="fill:#7F143A;" d="M74.309,50.431l8.866-8.975l35.899,35.466l-8.866,8.975c-4.897,4.957-12.885,5.005-17.841,0.108
			L74.418,68.272C69.461,63.375,69.413,55.388,74.309,50.431z"/>
		<path style="fill:#7F143A;" d="M44.765,68.48l-8.866,8.975L0,41.988l8.866-8.975c4.897-4.957,12.885-5.005,17.841-0.108
			l17.949,17.733C49.614,55.535,49.662,63.523,44.765,68.48z"/>
		<path style="fill:#7F143A;" d="M50.569,44.765l-8.975-8.866L77.06,0l8.975,8.866c4.957,4.897,5.005,12.885,0.108,17.841
			L68.41,44.657C63.513,49.614,55.525,49.662,50.569,44.765z"/>
		<path style="fill:#7F143A;" d="M68.645,74.337l8.975,8.866l-35.466,35.899l-8.975-8.866c-4.957-4.897-5.005-12.885-0.108-17.841
			l17.733-17.949C55.7,69.489,63.688,69.44,68.645,74.337z"/>
		<path style="fill:#DF1D59;" d="M41.937,83.42l8.867-8.975c4.897-4.957,12.885-5.005,17.841-0.108l26.924,26.599l-8.867,8.975
			c-4.897,4.957-12.885,5.005-17.841,0.108L41.937,83.42z"/>
		<path style="fill:#DF1D59;" d="M35.738,41.827l8.975,8.867c4.957,4.897,5.005,12.885,0.108,17.841L18.221,95.458l-8.975-8.867
			C4.29,81.695,4.241,73.707,9.138,68.751L35.738,41.827z"/>
		<path style="fill:#DF1D59;" d="M77.276,35.683l-8.867,8.975c-4.897,4.957-12.885,5.005-17.841,0.108L23.645,18.166l8.867-8.975
			c4.897-4.957,12.885-5.005,17.841-0.108L77.276,35.683z"/>
		<path style="fill:#DF1D59;" d="M83.392,77.139l-8.975-8.867c-4.957-4.897-5.005-12.885-0.108-17.841l26.599-26.924l8.975,8.867
			c4.957,4.897,5.005,12.885,0.108,17.841L83.392,77.139z"/>
	</g>
</g>
</svg>
