<?xml version="1.0" encoding="utf-8"?>
<!-- Generator: Adobe Illustrator 21.0.2, SVG Export Plug-In . SVG Version: 6.00 Build 0)  -->
<svg version="1.1" id="Layer_1" xmlns="http://www.w3.org/2000/svg" xmlns:xlink="http://www.w3.org/1999/xlink" x="0px" y="0px"
	 width="790px" height="238px" viewBox="0 0 790 238" style="enable-background:new 0 0 790 238;" xml:space="preserve">
<style type="text/css">
	.st0{fill:#292F36;}
	.st1{fill:#7F143A;}
	.st2{fill:#DF1D59;}
</style>
<g>
	<g>
		<path class="st0" d="M273.7,107.5h-26.7c-8.7,0-10.5,4-10.5,11.6c0,7.7,1.9,11.6,10.5,11.6h26.7v5.3h-26.7
			c-11.7,0-16.1-5.6-16.1-16.9c0-11.2,4.4-16.9,16.1-16.9h26.7V107.5z"/>
		<path class="st0" d="M325.3,119.1c0,13.5-8,17.4-23.5,17.4c-15.5,0-23.5-3.9-23.5-17.4c0-13.5,8-17.4,23.5-17.4
			C317.3,101.7,325.3,105.6,325.3,119.1z M319.7,119.1c0-10.5-6.2-12.2-17.9-12.2c-11.7,0-17.9,1.7-17.9,12.2
			c0,10.6,6.2,12.2,17.9,12.2C313.5,131.3,319.7,129.7,319.7,119.1z"/>
		<path class="st0" d="M338.1,136h-5.5v-33.9h4.2c8.6,0,11,2.9,20.1,15.3c8.6,11.7,9.6,13.1,14.1,13.1h0.2v-28.4h5.5V136h-4.2
			c-8.1,0-10.5-2.7-20-15.2c-9.2-12-9.9-13.1-14.2-13.1h-0.2V136z"/>
		<path class="st0" d="M399.6,136v-28.9h-17.5v-4.9h40.4v4.9h-17.5V136H399.6z"/>
		<path class="st0" d="M472.2,119.1c0,13.5-8,17.4-23.5,17.4c-15.5,0-23.5-3.9-23.5-17.4c0-13.5,8-17.4,23.5-17.4
			C464.2,101.7,472.2,105.6,472.2,119.1z M466.6,119.1c0-10.5-6.2-12.2-17.9-12.2c-11.7,0-17.9,1.7-17.9,12.2
			c0,10.6,6.2,12.2,17.9,12.2C460.5,131.3,466.6,129.7,466.6,119.1z"/>
		<path class="st0" d="M507.7,131.1c4.9,0,6.8-1.6,6.8-4.4c0-2.9-2.3-4.4-7.9-4.9l-16.6-1.3c-7.6-0.6-11.8-3.3-11.8-9.3
			c0-6.6,5.4-9.2,12.2-9.2h27.5v4.9h-28c-3.9,0-6.1,1.2-6.1,4.1c0,2.6,1.8,4,7.7,4.5l16,1.3c8,0.6,12.8,3.2,12.8,9.7
			c0,5.6-3.8,9.5-12.8,9.5h-29.5v-4.9H507.7z"/>
		<path class="st0" d="M572.2,119.1c0,13.5-8,17.4-23.5,17.4c-15.5,0-23.5-3.9-23.5-17.4c0-13.5,8-17.4,23.5-17.4
			C564.2,101.7,572.2,105.6,572.2,119.1z M566.6,119.1c0-10.5-6.2-12.2-17.9-12.2c-11.7,0-17.9,1.7-17.9,12.2
			c0,10.6,6.2,12.2,17.9,12.2C560.4,131.3,566.6,129.7,566.6,119.1z"/>
		<path class="st0" d="M637.1,136h-5.8l-4.6-9.2h-26.5l-4.6,9.2h-5.8l13.6-27.2c2.2-4.4,4.8-7.1,10-7.1c5.3,0,7.9,2.7,10.1,7.1
			L637.1,136z M618.2,109.9c-1-2.1-2.3-3.4-4.8-3.4c-2.4,0-3.7,1.3-4.7,3.4l-6,12h21.5L618.2,109.9z"/>
		<path class="st0" d="M648.4,102.2V136H643v-33.9H648.4z"/>
		<path class="st0" d="M657.5,102.2h29.2c8.3,0,12.8,4.1,12.8,10.3c0,4.9-2.7,7.9-7.3,9.1c4.4,1.3,6.4,4.2,6.4,7.9v6.5h-5.6v-6.6
			c0-2.7-1.7-5.3-6.5-5.3H663V136h-5.4V102.2z M687.1,119.2c5.1,0,6.8-3.4,6.8-6.1c0-2.8-1.6-6.1-6.8-6.1H663v12.2H687.1z"/>
	</g>
	<g>
		<path class="st1" d="M164.8,109.9l8.9-9l35.9,35.5l-8.9,9c-4.9,5-12.9,5-17.8,0.1l-17.9-17.7C159.9,122.8,159.9,114.8,164.8,109.9
			z"/>
		<path class="st1" d="M135.2,127.9l-8.9,9l-35.9-35.5l8.9-9c4.9-5,12.9-5,17.8-0.1l17.9,17.7C140.1,115,140.1,123,135.2,127.9z"/>
		<path class="st1" d="M141,104.2l-9-8.9l35.5-35.9l9,8.9c5,4.9,5,12.9,0.1,17.8l-17.7,17.9C154,109.1,146,109.1,141,104.2z"/>
		<path class="st1" d="M159.1,133.8l9,8.9l-35.5,35.9l-9-8.9c-5-4.9-5-12.9-0.1-17.8l17.7-17.9C146.2,128.9,154.2,128.9,159.1,133.8
			z"/>
		<path class="st2" d="M132.4,142.9l8.9-9c4.9-5,12.9-5,17.8-0.1l26.9,26.6l-8.9,9c-4.9,5-12.9,5-17.8,0.1L132.4,142.9z"/>
		<path class="st2" d="M126.2,101.3l9,8.9c5,4.9,5,12.9,0.1,17.8l-26.6,26.9l-9-8.9c-5-4.9-5-12.9-0.1-17.8L126.2,101.3z"/>
		<path class="st2" d="M167.7,95.1l-8.9,9c-4.9,5-12.9,5-17.8,0.1l-26.9-26.6l8.9-9c4.9-5,12.9-5,17.8-0.1L167.7,95.1z"/>
		<path class="st2" d="M173.9,136.6l-9-8.9c-5-4.9-5-12.9-0.1-17.8L191.4,83l9,8.9c5,4.9,5,12.9,0.1,17.8L173.9,136.6z"/>
	</g>
</g>
</svg>
